<?xml version="1.0" encoding="UTF-8" standalone="no"?><!DOCTYPE svg PUBLIC "-//W3C//DTD SVG 1.1//EN" "http://www.w3.org/Graphics/SVG/1.1/DTD/svg11.dtd"><svg width="100%" height="100%" viewBox="0 0 500 500" version="1.1" xmlns="http://www.w3.org/2000/svg" xmlns:xlink="http://www.w3.org/1999/xlink" xml:space="preserve" xmlns:serif="http://www.serif.com/" style="fill-rule:evenodd;clip-rule:evenodd;stroke-linejoin:round;stroke-miterlimit:2;"><rect id="Página-1" serif:id="Página 1" x="0" y="0" width="500" height="500" style="fill:none;"/><g id="BACKGROUND"></g><g id="OBJECTS"><path d="M239.181,63.54l0.017,0.033l-0.017,-0.033Zm10.822,217.352l80.57,42.364l-15.39,-89.722l65.192,-63.544l-90.082,-13.084l-40.291,-81.632l-40.285,81.632l-90.087,13.084l65.186,63.544l-15.39,89.722l80.576,-42.364Zm89.993,80.902c-4.23,0.006 -8.488,-1.023 -12.426,-3.091l-77.568,-40.783l-77.568,40.783c-9.047,4.756 -19.797,3.976 -28.07,-2.024c-8.262,-6.005 -12.326,-15.992 -10.601,-26.062l14.815,-86.382l-62.753,-61.177c-7.316,-7.117 -9.898,-17.585 -6.746,-27.307c3.152,-9.722 11.397,-16.673 21.511,-18.144l86.731,-12.603l38.787,-78.591c4.529,-9.169 13.681,-14.853 23.895,-14.853l0.011,0c10.219,0.006 19.366,5.696 23.884,14.853l38.792,78.591l86.725,12.603c10.114,1.465 18.354,8.416 21.511,18.138c3.163,9.716 0.581,20.179 -6.741,27.312l-62.759,61.177l14.815,86.377c1.725,10.075 -2.339,20.062 -10.601,26.068c-4.673,3.39 -10.136,5.115 -15.644,5.115" style="fill:#f8b630;fill-rule:nonzero;"/><path d="M84.554,219.305l37.166,36.276l-5.646,32.903c-26.87,5.419 -53.474,12.608 -79.625,21.567c3.147,-14.157 6.796,-28.313 10.839,-42.47c-11.231,-9.511 -22.838,-18.746 -34.899,-27.705c23.779,-8.129 47.889,-14.986 72.165,-20.571" style="fill:#f6fff4;fill-rule:nonzero;"/><path d="M415.446,219.305l-37.161,36.276l5.64,32.903c26.875,5.419 53.474,12.608 79.63,21.567c-3.147,-14.157 -6.802,-28.313 -10.839,-42.47c11.231,-9.511 22.838,-18.746 34.894,-27.705c-23.779,-8.129 -47.889,-14.986 -72.165,-20.571" style="fill:#f6fff4;fill-rule:nonzero;"/><path d="M220.247,233.07l14.859,0c0.531,6.929 6.686,11.762 14.317,11.762c9.036,0 15.561,-6.724 15.517,-16.18c0.044,-9.572 -6.641,-16.424 -15.932,-16.462c-5.076,-0.044 -10.44,2.063 -13.283,5.198l-13.825,-2.273l4.413,-43.575l49.028,0l0,12.791l-36.359,0l-2.439,22.413l0.498,0c3.135,-3.716 9.202,-6.442 16.053,-6.442c15.356,0 26.665,11.723 26.665,27.981c0,16.794 -12.464,28.932 -30.337,28.932c-16.507,0 -28.766,-10.109 -29.176,-24.143" style="fill:#f6fff4;fill-rule:nonzero;"/><path d="M112.086,414.855l8.71,17.635l19.465,2.831l-14.085,13.731l3.323,19.388l-17.414,-9.157l-17.408,9.157l3.323,-19.388l-14.085,-13.731l19.465,-2.831l8.704,-17.635Z" style="fill:#f8b630;fill-rule:nonzero;"/><path d="M181.047,414.855l8.704,17.635l19.471,2.831l-14.09,13.731l3.323,19.388l-17.408,-9.157l-17.408,9.157l3.318,-19.388l-14.085,-13.731l19.471,-2.831l8.704,-17.635Z" style="fill:#f8b630;fill-rule:nonzero;"/><path d="M250.003,414.855l8.704,17.635l19.471,2.831l-14.09,13.731l3.323,19.388l-17.408,-9.157l-17.408,9.157l3.323,-19.388l-14.09,-13.731l19.471,-2.831l8.704,-17.635Z" style="fill:#f8b630;fill-rule:nonzero;"/><path d="M318.96,414.855l8.704,17.635l19.471,2.831l-14.09,13.731l3.323,19.388l-17.408,-9.157l-17.408,9.157l3.323,-19.388l-14.09,-13.731l19.471,-2.831l8.704,-17.635Z" style="fill:#f8b630;fill-rule:nonzero;"/><path d="M387.916,414.855l8.704,17.635l19.471,2.831l-14.085,13.731l3.318,19.388l-17.408,-9.157l-17.408,9.157l3.323,-19.388l-14.09,-13.731l19.471,-2.831l8.704,-17.635Z" style="fill:#f8b630;fill-rule:nonzero;"/></g><g id="TEXTS"></g></svg>