<!DOCTYPE svg PUBLIC "-//W3C//DTD SVG 1.1//EN" "http://www.w3.org/Graphics/SVG/1.1/DTD/svg11.dtd">
<!-- Uploaded to: SVG Repo, www.svgrepo.com, Transformed by: SVG Repo Mixer Tools -->
<svg fill="#ea0000" width="800px" height="800px" viewBox="-5.6 -5.6 67.20 67.20" xmlns="http://www.w3.org/2000/svg" stroke="#ea0000">
<g id="SVGRepo_bgCarrier" stroke-width="0" transform="translate(14,14), scale(0.5)">
<rect x="-5.6" y="-5.6" width="67.20" height="67.20" rx="33.6" fill="#ffffff" strokewidth="0"/>
</g>
<g id="SVGRepo_tracerCarrier" stroke-linecap="round" stroke-linejoin="round"/>
<g id="SVGRepo_iconCarrier">
<path d="M 27.9999 51.9063 C 41.0546 51.9063 51.9063 41.0781 51.9063 28 C 51.9063 14.9453 41.0312 4.0937 27.9765 4.0937 C 14.8983 4.0937 4.0937 14.9453 4.0937 28 C 4.0937 41.0781 14.9218 51.9063 27.9999 51.9063 Z M 23.7109 37.0469 C 22.6327 37.7031 21.4140 37.1875 21.4140 36.0625 L 21.4140 19.9375 C 21.4140 18.8594 22.7030 18.3906 23.7109 18.9766 L 36.8827 26.7812 C 37.8436 27.3437 37.8671 28.6797 36.8827 29.2656 Z"/>
</g>
</svg>